<svg t="1737099947742" class="icon" viewBox="0 0 1024 1024" version="1.1" xmlns="http://www.w3.org/2000/svg" p-id="8932" width="48" height="48"><path d="M404.8 290.3c22.5-96.4 163.8-183.9 293.3-147.1C818.4 177.4 919 259.7 953.3 389.6c22.5 85-15.1 185.4-48.4 233.2-132.5 190.4-276.5 305.5-624.7 255.1v-13.2c210.1-10.4 536.1-229.9 501.5-444.3-30.6-189.9-299.2-208.5-347.5 22H421c-11.2-98.6-166.6-108.3-211.2-22-95 184.1 167.1 300.2 228.8 360.7v4.4h-26.4c-142.5-40.1-229.1-75.6-303.6-171.6-107-137.9-7-310.3 127.6-356.3 47.4-17.6 140.7-15.3 168.6 32.7z m0 0" fill="#D81E06" p-id="8933"></path></svg>